<mxfile host="www.draw.io" modified="2020-01-17T16:37:33.498Z" agent="Mozilla/5.0 (Windows NT 10.0; Win64; x64) AppleWebKit/537.36 (KHTML, like Gecko) Chrome/79.0.3945.117 Safari/537.36 OPR/66.0.3515.36" etag="BvMJ7vxkPaOqWNTxhSZ_" version="12.5.5" type="github" pages="2">
  <diagram id="CWpXYf02bERE23UVpJb5" name="Markings">
    <mxGraphModel dx="1382" dy="795" grid="1" gridSize="10" guides="1" tooltips="1" connect="1" arrows="1" fold="1" page="1" pageScale="1" pageWidth="400" pageHeight="600" math="0" shadow="0">
      <root>
        <mxCell id="JegNv_WGKpZzBHWyWpzY-0"/>
        <mxCell id="JegNv_WGKpZzBHWyWpzY-1" parent="JegNv_WGKpZzBHWyWpzY-0"/>
        <mxCell id="ogRYELJHpxN180byviA8-0" value="" style="rounded=0;whiteSpace=wrap;html=1;fontSize=11;align=center;fillColor=#f5f5f5;strokeColor=#666666;fontColor=#333333;" parent="JegNv_WGKpZzBHWyWpzY-1" vertex="1">
          <mxGeometry x="40" y="80" width="320" height="480" as="geometry"/>
        </mxCell>
        <mxCell id="ogRYELJHpxN180byviA8-1" value="" style="rounded=0;whiteSpace=wrap;html=1;align=center;fillColor=#dae8fc;strokeColor=#6c8ebf;" parent="JegNv_WGKpZzBHWyWpzY-1" vertex="1">
          <mxGeometry x="50" y="90" width="140" height="100" as="geometry"/>
        </mxCell>
        <mxCell id="ogRYELJHpxN180byviA8-2" value="" style="endArrow=classic;html=1;" parent="JegNv_WGKpZzBHWyWpzY-1" edge="1">
          <mxGeometry width="50" height="50" relative="1" as="geometry">
            <mxPoint x="80" y="100" as="sourcePoint"/>
            <mxPoint x="80" y="180" as="targetPoint"/>
          </mxGeometry>
        </mxCell>
        <mxCell id="ogRYELJHpxN180byviA8-3" value="Dependancy" style="text;html=1;strokeColor=none;fillColor=none;align=center;verticalAlign=middle;whiteSpace=wrap;rounded=0;fontSize=11;" parent="JegNv_WGKpZzBHWyWpzY-1" vertex="1">
          <mxGeometry x="120" y="130" width="70" height="20" as="geometry"/>
        </mxCell>
        <mxCell id="ogRYELJHpxN180byviA8-4" value="" style="shape=link;html=1;width=-2.3809523809523814;" parent="JegNv_WGKpZzBHWyWpzY-1" edge="1">
          <mxGeometry width="50" height="50" relative="1" as="geometry">
            <mxPoint x="120" y="190" as="sourcePoint"/>
            <mxPoint x="120" y="90" as="targetPoint"/>
          </mxGeometry>
        </mxCell>
        <mxCell id="ogRYELJHpxN180byviA8-5" value="" style="rounded=0;whiteSpace=wrap;html=1;align=center;fillColor=#dae8fc;strokeColor=#6c8ebf;" parent="JegNv_WGKpZzBHWyWpzY-1" vertex="1">
          <mxGeometry x="50" y="210" width="140" height="100" as="geometry"/>
        </mxCell>
        <mxCell id="ogRYELJHpxN180byviA8-6" value="" style="shape=link;html=1;entryX=0.5;entryY=0;entryDx=0;entryDy=0;exitX=0.5;exitY=1;exitDx=0;exitDy=0;width=-2.3809523809523814;" parent="JegNv_WGKpZzBHWyWpzY-1" source="ogRYELJHpxN180byviA8-5" target="ogRYELJHpxN180byviA8-5" edge="1">
          <mxGeometry width="50" height="50" relative="1" as="geometry">
            <mxPoint x="40" y="610" as="sourcePoint"/>
            <mxPoint x="90" y="560" as="targetPoint"/>
          </mxGeometry>
        </mxCell>
        <mxCell id="ogRYELJHpxN180byviA8-7" value="" style="endArrow=classic;html=1;fillColor=#f8cecc;strokeColor=#b85450;comic=0;rounded=0;strokeWidth=3;" parent="JegNv_WGKpZzBHWyWpzY-1" edge="1">
          <mxGeometry width="50" height="50" relative="1" as="geometry">
            <mxPoint x="80" y="220" as="sourcePoint"/>
            <mxPoint x="80" y="300" as="targetPoint"/>
          </mxGeometry>
        </mxCell>
        <mxCell id="ogRYELJHpxN180byviA8-8" value="API" style="text;html=1;strokeColor=none;fillColor=none;align=center;verticalAlign=middle;whiteSpace=wrap;rounded=0;fontSize=11;" parent="JegNv_WGKpZzBHWyWpzY-1" vertex="1">
          <mxGeometry x="120" y="250" width="70" height="20" as="geometry"/>
        </mxCell>
        <mxCell id="ogRYELJHpxN180byviA8-9" value="" style="rounded=0;whiteSpace=wrap;html=1;align=center;fillColor=#fff2cc;strokeColor=#d6b656;" parent="JegNv_WGKpZzBHWyWpzY-1" vertex="1">
          <mxGeometry x="210" y="90" width="140" height="100" as="geometry"/>
        </mxCell>
        <mxCell id="ogRYELJHpxN180byviA8-10" value="" style="shape=link;html=1;entryX=0.5;entryY=0;entryDx=0;entryDy=0;exitX=0.5;exitY=1;exitDx=0;exitDy=0;width=-2.3809523809523814;" parent="JegNv_WGKpZzBHWyWpzY-1" edge="1">
          <mxGeometry width="50" height="50" relative="1" as="geometry">
            <mxPoint x="279.52" y="190" as="sourcePoint"/>
            <mxPoint x="279.52" y="90" as="targetPoint"/>
          </mxGeometry>
        </mxCell>
        <mxCell id="ogRYELJHpxN180byviA8-11" value="" style="rounded=1;whiteSpace=wrap;html=1;gradientColor=none;fontSize=11;align=center;" parent="JegNv_WGKpZzBHWyWpzY-1" vertex="1">
          <mxGeometry x="220" y="100" width="50" height="80" as="geometry"/>
        </mxCell>
        <mxCell id="ogRYELJHpxN180byviA8-12" value="Project" style="text;html=1;strokeColor=none;fillColor=none;align=center;verticalAlign=middle;whiteSpace=wrap;rounded=0;fontSize=11;" parent="JegNv_WGKpZzBHWyWpzY-1" vertex="1">
          <mxGeometry x="280" y="130" width="70" height="20" as="geometry"/>
        </mxCell>
        <mxCell id="ogRYELJHpxN180byviA8-13" value="" style="rounded=0;whiteSpace=wrap;html=1;align=center;fillColor=#fff2cc;strokeColor=#d6b656;" parent="JegNv_WGKpZzBHWyWpzY-1" vertex="1">
          <mxGeometry x="210" y="210" width="140" height="100" as="geometry"/>
        </mxCell>
        <mxCell id="ogRYELJHpxN180byviA8-14" value="" style="shape=link;html=1;entryX=0.5;entryY=0;entryDx=0;entryDy=0;exitX=0.5;exitY=1;exitDx=0;exitDy=0;width=-2.3809523809523814;" parent="JegNv_WGKpZzBHWyWpzY-1" edge="1">
          <mxGeometry width="50" height="50" relative="1" as="geometry">
            <mxPoint x="279.52" y="310" as="sourcePoint"/>
            <mxPoint x="279.52" y="210" as="targetPoint"/>
          </mxGeometry>
        </mxCell>
        <mxCell id="ogRYELJHpxN180byviA8-15" value="" style="ellipse;whiteSpace=wrap;html=1;gradientColor=none;fontSize=11;align=center;" parent="JegNv_WGKpZzBHWyWpzY-1" vertex="1">
          <mxGeometry x="220" y="220" width="50" height="80" as="geometry"/>
        </mxCell>
        <mxCell id="ogRYELJHpxN180byviA8-16" value="" style="rounded=0;whiteSpace=wrap;html=1;align=center;fillColor=#fff2cc;strokeColor=#d6b656;" parent="JegNv_WGKpZzBHWyWpzY-1" vertex="1">
          <mxGeometry x="210" y="450" width="140" height="100" as="geometry"/>
        </mxCell>
        <mxCell id="ogRYELJHpxN180byviA8-17" value="" style="shape=link;html=1;entryX=0.5;entryY=0;entryDx=0;entryDy=0;exitX=0.5;exitY=1;exitDx=0;exitDy=0;width=-2.3809523809523814;" parent="JegNv_WGKpZzBHWyWpzY-1" edge="1">
          <mxGeometry width="50" height="50" relative="1" as="geometry">
            <mxPoint x="279.52" y="550" as="sourcePoint"/>
            <mxPoint x="279.52" y="450" as="targetPoint"/>
          </mxGeometry>
        </mxCell>
        <mxCell id="ogRYELJHpxN180byviA8-18" value="" style="shape=cylinder;whiteSpace=wrap;html=1;boundedLbl=1;backgroundOutline=1;gradientColor=none;fontSize=11;align=center;" parent="JegNv_WGKpZzBHWyWpzY-1" vertex="1">
          <mxGeometry x="220" y="460" width="50" height="80" as="geometry"/>
        </mxCell>
        <mxCell id="ogRYELJHpxN180byviA8-19" value="Database" style="text;html=1;strokeColor=none;fillColor=none;align=center;verticalAlign=middle;whiteSpace=wrap;rounded=0;fontSize=11;" parent="JegNv_WGKpZzBHWyWpzY-1" vertex="1">
          <mxGeometry x="280" y="490" width="70" height="20" as="geometry"/>
        </mxCell>
        <mxCell id="ogRYELJHpxN180byviA8-20" value="" style="rounded=0;whiteSpace=wrap;html=1;align=center;fillColor=#dae8fc;strokeColor=#6c8ebf;" parent="JegNv_WGKpZzBHWyWpzY-1" vertex="1">
          <mxGeometry x="50" y="330" width="140" height="100" as="geometry"/>
        </mxCell>
        <mxCell id="ogRYELJHpxN180byviA8-21" value="" style="shape=link;html=1;entryX=0.5;entryY=0;entryDx=0;entryDy=0;exitX=0.5;exitY=1;exitDx=0;exitDy=0;width=-2.3809523809523814;" parent="JegNv_WGKpZzBHWyWpzY-1" edge="1">
          <mxGeometry width="50" height="50" relative="1" as="geometry">
            <mxPoint x="119.51999999999998" y="430" as="sourcePoint"/>
            <mxPoint x="119.51999999999998" y="330" as="targetPoint"/>
          </mxGeometry>
        </mxCell>
        <mxCell id="ogRYELJHpxN180byviA8-22" value="" style="endArrow=classic;html=1;fillColor=#f8cecc;strokeColor=#0D40B8;comic=0;rounded=0;strokeWidth=3;" parent="JegNv_WGKpZzBHWyWpzY-1" edge="1">
          <mxGeometry width="50" height="50" relative="1" as="geometry">
            <mxPoint x="80" y="340" as="sourcePoint"/>
            <mxPoint x="80" y="420" as="targetPoint"/>
          </mxGeometry>
        </mxCell>
        <mxCell id="ogRYELJHpxN180byviA8-23" value="Calls" style="text;html=1;strokeColor=none;fillColor=none;align=center;verticalAlign=middle;whiteSpace=wrap;rounded=0;fontSize=11;" parent="JegNv_WGKpZzBHWyWpzY-1" vertex="1">
          <mxGeometry x="120" y="370" width="70" height="20" as="geometry"/>
        </mxCell>
        <mxCell id="ogRYELJHpxN180byviA8-24" value="&lt;font color=&quot;#ffffff&quot; style=&quot;font-size: 18px&quot;&gt;Markings&lt;/font&gt;" style="rounded=0;whiteSpace=wrap;html=1;gradientColor=none;fontSize=11;align=center;fillColor=#808080;" parent="JegNv_WGKpZzBHWyWpzY-1" vertex="1">
          <mxGeometry x="40" y="40" width="320" height="40" as="geometry"/>
        </mxCell>
        <mxCell id="ogRYELJHpxN180byviA8-25" value="Classes&lt;br&gt;&amp;amp;&lt;br&gt;Directories" style="text;html=1;strokeColor=none;fillColor=none;align=center;verticalAlign=middle;whiteSpace=wrap;rounded=0;fontSize=11;" parent="JegNv_WGKpZzBHWyWpzY-1" vertex="1">
          <mxGeometry x="280" y="250" width="70" height="20" as="geometry"/>
        </mxCell>
        <mxCell id="oxoOm_KX7mfB0IOb7UIV-0" value="" style="rounded=0;whiteSpace=wrap;html=1;align=center;fillColor=#dae8fc;strokeColor=#6c8ebf;" parent="JegNv_WGKpZzBHWyWpzY-1" vertex="1">
          <mxGeometry x="50" y="450" width="140" height="100" as="geometry"/>
        </mxCell>
        <mxCell id="oxoOm_KX7mfB0IOb7UIV-1" value="" style="shape=link;html=1;entryX=0.5;entryY=0;entryDx=0;entryDy=0;exitX=0.5;exitY=1;exitDx=0;exitDy=0;width=-2.3809523809523814;" parent="JegNv_WGKpZzBHWyWpzY-1" edge="1">
          <mxGeometry width="50" height="50" relative="1" as="geometry">
            <mxPoint x="119.51999999999998" y="550" as="sourcePoint"/>
            <mxPoint x="119.51999999999998" y="450" as="targetPoint"/>
          </mxGeometry>
        </mxCell>
        <mxCell id="oxoOm_KX7mfB0IOb7UIV-2" value="" style="endArrow=classic;html=1;fillColor=#fff2cc;strokeColor=#d6b656;comic=0;rounded=0;strokeWidth=3;" parent="JegNv_WGKpZzBHWyWpzY-1" edge="1">
          <mxGeometry width="50" height="50" relative="1" as="geometry">
            <mxPoint x="80" y="460" as="sourcePoint"/>
            <mxPoint x="80" y="540" as="targetPoint"/>
          </mxGeometry>
        </mxCell>
        <mxCell id="oxoOm_KX7mfB0IOb7UIV-3" value="Inheritance" style="text;html=1;strokeColor=none;fillColor=none;align=center;verticalAlign=middle;whiteSpace=wrap;rounded=0;fontSize=11;" parent="JegNv_WGKpZzBHWyWpzY-1" vertex="1">
          <mxGeometry x="120" y="490" width="70" height="20" as="geometry"/>
        </mxCell>
        <mxCell id="oxoOm_KX7mfB0IOb7UIV-4" value="" style="rounded=0;whiteSpace=wrap;html=1;align=center;fillColor=#fff2cc;strokeColor=#d6b656;" parent="JegNv_WGKpZzBHWyWpzY-1" vertex="1">
          <mxGeometry x="210" y="330" width="140" height="100" as="geometry"/>
        </mxCell>
        <mxCell id="oxoOm_KX7mfB0IOb7UIV-5" value="" style="shape=link;html=1;entryX=0.5;entryY=0;entryDx=0;entryDy=0;exitX=0.5;exitY=1;exitDx=0;exitDy=0;width=-2.3809523809523814;" parent="JegNv_WGKpZzBHWyWpzY-1" edge="1">
          <mxGeometry width="50" height="50" relative="1" as="geometry">
            <mxPoint x="279.52" y="430" as="sourcePoint"/>
            <mxPoint x="279.52" y="330" as="targetPoint"/>
          </mxGeometry>
        </mxCell>
        <mxCell id="oxoOm_KX7mfB0IOb7UIV-7" value="Interface" style="text;html=1;strokeColor=none;fillColor=none;align=center;verticalAlign=middle;whiteSpace=wrap;rounded=0;fontSize=11;" parent="JegNv_WGKpZzBHWyWpzY-1" vertex="1">
          <mxGeometry x="280" y="370" width="70" height="20" as="geometry"/>
        </mxCell>
        <mxCell id="oxoOm_KX7mfB0IOb7UIV-8" value="" style="rhombus;whiteSpace=wrap;html=1;strokeColor=#000000;align=center;" parent="JegNv_WGKpZzBHWyWpzY-1" vertex="1">
          <mxGeometry x="220" y="340" width="50" height="80" as="geometry"/>
        </mxCell>
      </root>
    </mxGraphModel>
  </diagram>
  <diagram id="fozJ2uBxFglxSakZYLrb" name="ProjectBorad">
    <mxGraphModel dx="3455" dy="1988" grid="1" gridSize="10" guides="1" tooltips="1" connect="1" arrows="1" fold="1" page="1" pageScale="1" pageWidth="4000" pageHeight="4000" background="none" math="0" shadow="0">
      <root>
        <mxCell id="0"/>
        <mxCell id="1" parent="0"/>
        <mxCell id="85Ygcqbf_G4YN5lP5N1D-4" value="" style="rounded=0;whiteSpace=wrap;html=1;strokeColor=#666666;fillColor=#DEDEDE;fontSize=11;align=center;fontColor=#333333;" parent="1" vertex="1">
          <mxGeometry x="320" y="120" width="1160" height="3150" as="geometry"/>
        </mxCell>
        <mxCell id="HSg5DpT2FJxFsOYiWfPZ-5" value="Core" style="shape=umlFrame;whiteSpace=wrap;html=1;align=center;width=60;height=30;swimlaneFillColor=#F2F2F2;gradientColor=#ffffff;" parent="1" vertex="1">
          <mxGeometry x="340" y="200" width="1120" height="280" as="geometry"/>
        </mxCell>
        <mxCell id="xJ-lUGYUrFKlf-khSyfK-44" value="" style="rounded=0;whiteSpace=wrap;html=1;strokeColor=#666666;fillColor=#f5f5f5;fontSize=11;align=center;fontColor=#333333;" parent="1" vertex="1">
          <mxGeometry x="40" y="120" width="200" height="360" as="geometry"/>
        </mxCell>
        <mxCell id="cRoPIz6aXzqG4CNdJphQ-14" value="SharedPCH" style="rounded=1;arcSize=10;whiteSpace=wrap;html=1;align=center;" parent="1" vertex="1">
          <mxGeometry x="50" y="130" width="180" height="80" as="geometry"/>
        </mxCell>
        <mxCell id="cRoPIz6aXzqG4CNdJphQ-15" value="Engine" style="rounded=1;arcSize=10;whiteSpace=wrap;html=1;align=center;" parent="1" vertex="1">
          <mxGeometry x="330" y="130" width="1140" height="70" as="geometry"/>
        </mxCell>
        <mxCell id="cRoPIz6aXzqG4CNdJphQ-17" value="External Dependancies" style="swimlane;fontStyle=0;childLayout=stackLayout;horizontal=1;startSize=26;fillColor=#e0e0e0;horizontalStack=0;resizeParent=1;resizeParentMax=0;resizeLast=0;collapsible=1;marginBottom=0;swimlaneFillColor=#ffffff;align=center;fontSize=14;" parent="1" vertex="1">
          <mxGeometry x="50" y="216" width="180" height="104" as="geometry"/>
        </mxCell>
        <mxCell id="cRoPIz6aXzqG4CNdJphQ-18" value="SQLite" style="text;spacingLeft=4;spacingRight=4;overflow=hidden;rotatable=0;points=[[0,0.5],[1,0.5]];portConstraint=eastwest;fontSize=12;align=center;" parent="cRoPIz6aXzqG4CNdJphQ-17" vertex="1">
          <mxGeometry y="26" width="180" height="26" as="geometry"/>
        </mxCell>
        <mxCell id="cRoPIz6aXzqG4CNdJphQ-19" value="Row 2" style="text;spacingLeft=4;spacingRight=4;overflow=hidden;rotatable=0;points=[[0,0.5],[1,0.5]];portConstraint=eastwest;fontSize=12;align=center;strokeWidth=1;strokeColor=#000000;" parent="cRoPIz6aXzqG4CNdJphQ-17" vertex="1">
          <mxGeometry y="52" width="180" height="26" as="geometry"/>
        </mxCell>
        <mxCell id="cRoPIz6aXzqG4CNdJphQ-20" value="Row 3" style="text;spacingLeft=4;spacingRight=4;overflow=hidden;rotatable=0;points=[[0,0.5],[1,0.5]];portConstraint=eastwest;fontSize=12;align=center;strokeColor=#000000;" parent="cRoPIz6aXzqG4CNdJphQ-17" vertex="1">
          <mxGeometry y="78" width="180" height="26" as="geometry"/>
        </mxCell>
        <mxCell id="xJ-lUGYUrFKlf-khSyfK-45" value="&lt;font color=&quot;#ffffff&quot; style=&quot;font-size: 18px&quot;&gt;Dependancies&lt;/font&gt;" style="rounded=0;whiteSpace=wrap;html=1;gradientColor=none;fontSize=11;align=center;fillColor=#808080;" parent="1" vertex="1">
          <mxGeometry x="40" y="80" width="200" height="40" as="geometry"/>
        </mxCell>
        <mxCell id="85Ygcqbf_G4YN5lP5N1D-3" value="&lt;font style=&quot;font-size: 18px&quot; color=&quot;#ffffff&quot;&gt;Engine&lt;/font&gt;" style="rounded=0;whiteSpace=wrap;html=1;gradientColor=none;fontSize=11;align=center;fillColor=#808080;" parent="1" vertex="1">
          <mxGeometry x="320" y="80" width="1160" height="40" as="geometry"/>
        </mxCell>
        <mxCell id="85Ygcqbf_G4YN5lP5N1D-6" value="" style="endArrow=classic;html=1;exitX=1;exitY=0.5;exitDx=0;exitDy=0;entryX=0.25;entryY=0;entryDx=0;entryDy=0;" parent="1" source="cRoPIz6aXzqG4CNdJphQ-14" target="cRoPIz6aXzqG4CNdJphQ-15" edge="1">
          <mxGeometry width="50" height="50" relative="1" as="geometry">
            <mxPoint x="550" y="290" as="sourcePoint"/>
            <mxPoint x="410" y="60" as="targetPoint"/>
            <Array as="points">
              <mxPoint x="250" y="170"/>
              <mxPoint x="250" y="10"/>
              <mxPoint x="545" y="10"/>
            </Array>
          </mxGeometry>
        </mxCell>
        <mxCell id="G1HnMXzEjRpA4rqBbhug-3" value="SharedPCH" style="text;html=1;align=center;verticalAlign=middle;resizable=0;points=[];labelBackgroundColor=#ffffff;" parent="85Ygcqbf_G4YN5lP5N1D-6" vertex="1" connectable="0">
          <mxGeometry x="-0.0072" y="1" relative="1" as="geometry">
            <mxPoint y="1" as="offset"/>
          </mxGeometry>
        </mxCell>
        <mxCell id="85Ygcqbf_G4YN5lP5N1D-8" value="" style="endArrow=classic;html=1;exitX=1;exitY=0.5;exitDx=0;exitDy=0;movable=0;resizable=0;rotatable=0;deletable=0;editable=0;connectable=0;entryX=0.25;entryY=0;entryDx=0;entryDy=0;" parent="1" source="cRoPIz6aXzqG4CNdJphQ-18" target="cRoPIz6aXzqG4CNdJphQ-15" edge="1">
          <mxGeometry width="50" height="50" relative="1" as="geometry">
            <mxPoint x="600" y="220" as="sourcePoint"/>
            <mxPoint x="780" y="50" as="targetPoint"/>
            <Array as="points">
              <mxPoint x="260" y="255"/>
              <mxPoint x="260" y="20"/>
              <mxPoint x="545" y="20"/>
            </Array>
          </mxGeometry>
        </mxCell>
        <mxCell id="G1HnMXzEjRpA4rqBbhug-2" value="SQLite" style="text;html=1;align=center;verticalAlign=middle;resizable=0;points=[];labelBackgroundColor=#ffffff;" parent="85Ygcqbf_G4YN5lP5N1D-8" vertex="1" connectable="0">
          <mxGeometry x="0.4344" y="-2" relative="1" as="geometry">
            <mxPoint as="offset"/>
          </mxGeometry>
        </mxCell>
        <mxCell id="gbGBVMk_RpWAh8L6L3dt-8" value="Log" style="ellipse;whiteSpace=wrap;html=1;strokeColor=#000000;align=center;" parent="1" vertex="1">
          <mxGeometry x="360" y="291" width="70" height="56" as="geometry"/>
        </mxCell>
        <mxCell id="HSg5DpT2FJxFsOYiWfPZ-1" value="Application" style="rhombus;whiteSpace=wrap;html=1;strokeColor=#000000;align=center;" parent="1" vertex="1">
          <mxGeometry x="460" y="287" width="80" height="64" as="geometry"/>
        </mxCell>
        <mxCell id="HSg5DpT2FJxFsOYiWfPZ-2" value="Registry" style="ellipse;whiteSpace=wrap;html=1;strokeColor=#000000;align=center;" parent="1" vertex="1">
          <mxGeometry x="570" y="292" width="70" height="56" as="geometry"/>
        </mxCell>
        <mxCell id="HSg5DpT2FJxFsOYiWfPZ-7" value="Globals" style="ellipse;whiteSpace=wrap;html=1;strokeColor=#000000;align=center;" parent="1" vertex="1">
          <mxGeometry x="670" y="292" width="70" height="56" as="geometry"/>
        </mxCell>
        <mxCell id="80_CdLorSI1OnsDeqiBM-1" value="QED API" style="rhombus;whiteSpace=wrap;html=1;strokeColor=#000000;align=center;" parent="1" vertex="1">
          <mxGeometry x="770" y="287" width="80" height="64" as="geometry"/>
        </mxCell>
        <mxCell id="3isU15ER9kaywwN_Q5gy-1" value="" style="endArrow=classic;html=1;fillColor=#f8cecc;strokeColor=#0D40B8;comic=0;rounded=0;strokeWidth=3;entryX=0.5;entryY=0;entryDx=0;entryDy=0;opacity=50;" parent="1" target="HSg5DpT2FJxFsOYiWfPZ-1" edge="1">
          <mxGeometry width="50" height="50" relative="1" as="geometry">
            <mxPoint x="394.71" y="346" as="sourcePoint"/>
            <mxPoint x="500" y="280" as="targetPoint"/>
            <Array as="points">
              <mxPoint x="395" y="360"/>
              <mxPoint x="440" y="360"/>
              <mxPoint x="440" y="260"/>
              <mxPoint x="500" y="260"/>
            </Array>
          </mxGeometry>
        </mxCell>
        <mxCell id="3isU15ER9kaywwN_Q5gy-2" value="" style="endArrow=classic;html=1;fillColor=#f8cecc;strokeColor=#0D40B8;comic=0;rounded=0;strokeWidth=3;entryX=0.5;entryY=0;entryDx=0;entryDy=0;opacity=50;" parent="1" target="HSg5DpT2FJxFsOYiWfPZ-2" edge="1">
          <mxGeometry width="50" height="50" relative="1" as="geometry">
            <mxPoint x="500" y="260" as="sourcePoint"/>
            <mxPoint x="490" y="362" as="targetPoint"/>
            <Array as="points">
              <mxPoint x="605" y="260"/>
            </Array>
          </mxGeometry>
        </mxCell>
        <mxCell id="3isU15ER9kaywwN_Q5gy-6" value="SQLite" style="shape=umlFrame;whiteSpace=wrap;html=1;strokeColor=#000000;align=center;width=60;height=30;swimlaneFillColor=#F2F2F2;fillColor=#FFFFFF;" parent="1" vertex="1">
          <mxGeometry x="340" y="480" width="1120" height="280" as="geometry"/>
        </mxCell>
        <mxCell id="80_CdLorSI1OnsDeqiBM-3" value="Database" style="ellipse;whiteSpace=wrap;html=1;strokeColor=#000000;align=center;" parent="1" vertex="1">
          <mxGeometry x="360" y="570" width="70" height="56" as="geometry"/>
        </mxCell>
        <mxCell id="3isU15ER9kaywwN_Q5gy-7" value="" style="endArrow=classic;html=1;fillColor=#f8cecc;strokeColor=#0D40B8;comic=0;rounded=0;strokeWidth=3;entryX=0.5;entryY=0;entryDx=0;entryDy=0;opacity=50;exitX=0.5;exitY=1;exitDx=0;exitDy=0;" parent="1" source="HSg5DpT2FJxFsOYiWfPZ-2" target="80_CdLorSI1OnsDeqiBM-3" edge="1">
          <mxGeometry width="50" height="50" relative="1" as="geometry">
            <mxPoint x="480.0000000000003" y="596" as="sourcePoint"/>
            <mxPoint x="585.29" y="537" as="targetPoint"/>
            <Array as="points">
              <mxPoint x="605" y="550"/>
              <mxPoint x="395" y="550"/>
            </Array>
          </mxGeometry>
        </mxCell>
        <mxCell id="3isU15ER9kaywwN_Q5gy-10" value="PhysicalFileSystem" style="shape=umlFrame;whiteSpace=wrap;html=1;strokeColor=#000000;align=center;width=140;height=30;swimlaneFillColor=#F2F2F2;" parent="1" vertex="1">
          <mxGeometry x="340" y="1610" width="680" height="240" as="geometry"/>
        </mxCell>
        <mxCell id="3isU15ER9kaywwN_Q5gy-12" value="PPath" style="ellipse;whiteSpace=wrap;html=1;strokeColor=#000000;align=center;" parent="1" vertex="1">
          <mxGeometry x="360" y="1702" width="70" height="56" as="geometry"/>
        </mxCell>
        <mxCell id="3isU15ER9kaywwN_Q5gy-13" value="PFile" style="ellipse;whiteSpace=wrap;html=1;strokeColor=#000000;align=center;" parent="1" vertex="1">
          <mxGeometry x="465" y="1702" width="70" height="56" as="geometry"/>
        </mxCell>
        <mxCell id="3isU15ER9kaywwN_Q5gy-14" value="PDirectory" style="ellipse;whiteSpace=wrap;html=1;strokeColor=#000000;align=center;" parent="1" vertex="1">
          <mxGeometry x="570" y="1702" width="70" height="56" as="geometry"/>
        </mxCell>
        <mxCell id="3isU15ER9kaywwN_Q5gy-15" value="VirtualFileSystem" style="shape=umlFrame;whiteSpace=wrap;html=1;strokeColor=#000000;align=center;width=140;height=30;swimlaneFillColor=#F2F2F2;" parent="1" vertex="1">
          <mxGeometry x="340" y="1850" width="680" height="240" as="geometry"/>
        </mxCell>
        <mxCell id="3isU15ER9kaywwN_Q5gy-17" value="VPath" style="ellipse;whiteSpace=wrap;html=1;strokeColor=#000000;align=center;" parent="1" vertex="1">
          <mxGeometry x="360" y="1942" width="70" height="56" as="geometry"/>
        </mxCell>
        <mxCell id="3isU15ER9kaywwN_Q5gy-18" value="VFile" style="ellipse;whiteSpace=wrap;html=1;strokeColor=#000000;align=center;" parent="1" vertex="1">
          <mxGeometry x="465" y="1942" width="70" height="56" as="geometry"/>
        </mxCell>
        <mxCell id="3isU15ER9kaywwN_Q5gy-19" value="VDirectory" style="ellipse;whiteSpace=wrap;html=1;strokeColor=#000000;align=center;" parent="1" vertex="1">
          <mxGeometry x="570" y="1942" width="70" height="56" as="geometry"/>
        </mxCell>
        <mxCell id="3isU15ER9kaywwN_Q5gy-21" value="ModuleFramework" style="shape=umlFrame;whiteSpace=wrap;html=1;strokeColor=#000000;align=center;width=140;height=30;swimlaneFillColor=#F2F2F2;" parent="1" vertex="1">
          <mxGeometry x="340" y="2090" width="680" height="240" as="geometry"/>
        </mxCell>
        <mxCell id="3isU15ER9kaywwN_Q5gy-22" value="Renderer&lt;br&gt;API" style="rhombus;whiteSpace=wrap;html=1;strokeColor=#000000;align=center;" parent="1" vertex="1">
          <mxGeometry x="360" y="2178" width="80" height="64" as="geometry"/>
        </mxCell>
        <mxCell id="3isU15ER9kaywwN_Q5gy-23" value="Scripting&lt;br&gt;API" style="rhombus;whiteSpace=wrap;html=1;strokeColor=#000000;align=center;" parent="1" vertex="1">
          <mxGeometry x="460" y="2178" width="80" height="64" as="geometry"/>
        </mxCell>
        <mxCell id="3isU15ER9kaywwN_Q5gy-24" value="Loader&lt;br&gt;API" style="rhombus;whiteSpace=wrap;html=1;strokeColor=#000000;align=center;" parent="1" vertex="1">
          <mxGeometry x="565" y="2178" width="80" height="64" as="geometry"/>
        </mxCell>
        <mxCell id="3isU15ER9kaywwN_Q5gy-25" value="EventSystem" style="shape=umlFrame;whiteSpace=wrap;html=1;strokeColor=#000000;align=center;width=140;height=30;swimlaneFillColor=#F2F2F2;" parent="1" vertex="1">
          <mxGeometry x="340" y="760" width="1120" height="460" as="geometry"/>
        </mxCell>
        <mxCell id="3isU15ER9kaywwN_Q5gy-26" value="ImGUI" style="shape=umlFrame;whiteSpace=wrap;html=1;strokeColor=#000000;align=center;width=140;height=30;swimlaneFillColor=#F2F2F2;" parent="1" vertex="1">
          <mxGeometry x="340" y="2330" width="680" height="240" as="geometry"/>
        </mxCell>
        <mxCell id="3isU15ER9kaywwN_Q5gy-27" value="&lt;font style=&quot;font-size: 18px&quot; color=&quot;#ffffff&quot;&gt;Client&lt;/font&gt;" style="rounded=0;whiteSpace=wrap;html=1;gradientColor=none;fontSize=11;align=center;fillColor=#808080;" parent="1" vertex="1">
          <mxGeometry x="1601.72" y="80" width="440" height="40" as="geometry"/>
        </mxCell>
        <mxCell id="3isU15ER9kaywwN_Q5gy-28" value="" style="rounded=0;whiteSpace=wrap;html=1;strokeColor=#666666;fillColor=#DEDEDE;fontSize=11;align=center;fontColor=#333333;" parent="1" vertex="1">
          <mxGeometry x="1601.72" y="120" width="440" height="520" as="geometry"/>
        </mxCell>
        <mxCell id="cRoPIz6aXzqG4CNdJphQ-16" value="Client" style="rounded=1;arcSize=10;whiteSpace=wrap;html=1;align=center;" parent="1" vertex="1">
          <mxGeometry x="1611.72" y="130" width="420" height="70" as="geometry"/>
        </mxCell>
        <mxCell id="3isU15ER9kaywwN_Q5gy-29" value="Main" style="shape=umlFrame;whiteSpace=wrap;html=1;align=center;width=60;height=30;swimlaneFillColor=#F2F2F2;gradientColor=#ffffff;" parent="1" vertex="1">
          <mxGeometry x="1621.72" y="200" width="400" height="280" as="geometry"/>
        </mxCell>
        <mxCell id="3isU15ER9kaywwN_Q5gy-30" value="Main" style="ellipse;whiteSpace=wrap;html=1;strokeColor=#000000;align=center;" parent="1" vertex="1">
          <mxGeometry x="1641.72" y="291" width="70" height="56" as="geometry"/>
        </mxCell>
        <mxCell id="3isU15ER9kaywwN_Q5gy-31" value="Client&lt;br&gt;Application" style="ellipse;whiteSpace=wrap;html=1;strokeColor=#000000;align=center;" parent="1" vertex="1">
          <mxGeometry x="1741.72" y="292" width="70" height="56" as="geometry"/>
        </mxCell>
        <mxCell id="2lPFWVvwFSRNDAgXZyUQ-1" value="" style="endArrow=classic;html=1;fillColor=#fff2cc;strokeColor=#d6b656;comic=0;rounded=0;strokeWidth=3;entryX=0.5;entryY=0;entryDx=0;entryDy=0;" parent="1" target="3isU15ER9kaywwN_Q5gy-31" edge="1">
          <mxGeometry width="50" height="50" relative="1" as="geometry">
            <mxPoint x="499.5" y="351" as="sourcePoint"/>
            <mxPoint x="499.5" y="431" as="targetPoint"/>
            <Array as="points">
              <mxPoint x="500" y="370"/>
              <mxPoint x="1050" y="370"/>
              <mxPoint x="1050" y="270"/>
              <mxPoint x="1480" y="270"/>
            </Array>
          </mxGeometry>
        </mxCell>
        <mxCell id="2lPFWVvwFSRNDAgXZyUQ-2" value="" style="endArrow=classic;html=1;fillColor=#f8cecc;strokeColor=#0D40B8;comic=0;rounded=0;strokeWidth=3;entryX=0.5;entryY=0;entryDx=0;entryDy=0;exitX=0.5;exitY=1;exitDx=0;exitDy=0;" parent="1" source="3isU15ER9kaywwN_Q5gy-30" target="3isU15ER9kaywwN_Q5gy-31" edge="1">
          <mxGeometry width="50" height="50" relative="1" as="geometry">
            <mxPoint x="1701.72" y="240" as="sourcePoint"/>
            <mxPoint x="1806.72" y="272" as="targetPoint"/>
            <Array as="points">
              <mxPoint x="1676.72" y="360"/>
              <mxPoint x="1721.72" y="360"/>
              <mxPoint x="1721.72" y="260"/>
              <mxPoint x="1776.72" y="260"/>
            </Array>
          </mxGeometry>
        </mxCell>
        <mxCell id="2lPFWVvwFSRNDAgXZyUQ-3" value="&lt;font style=&quot;font-size: 18px&quot; color=&quot;#ffffff&quot;&gt;OpenGL Module&lt;/font&gt;" style="rounded=0;whiteSpace=wrap;html=1;gradientColor=none;fontSize=11;align=center;fillColor=#808080;" parent="1" vertex="1">
          <mxGeometry x="2121.7200000000003" y="80" width="440" height="40" as="geometry"/>
        </mxCell>
        <mxCell id="2lPFWVvwFSRNDAgXZyUQ-4" value="" style="rounded=0;whiteSpace=wrap;html=1;strokeColor=#666666;fillColor=#DEDEDE;fontSize=11;align=center;fontColor=#333333;" parent="1" vertex="1">
          <mxGeometry x="2121.7200000000003" y="120" width="440" height="520" as="geometry"/>
        </mxCell>
        <mxCell id="2lPFWVvwFSRNDAgXZyUQ-6" value="Module API" style="shape=umlFrame;whiteSpace=wrap;html=1;align=center;width=60;height=30;swimlaneFillColor=#F2F2F2;gradientColor=#ffffff;" parent="1" vertex="1">
          <mxGeometry x="2141.7200000000003" y="200" width="400" height="280" as="geometry"/>
        </mxCell>
        <mxCell id="cRoPIz6aXzqG4CNdJphQ-22" value="OpenGL&lt;br&gt;Module" style="rounded=1;arcSize=10;whiteSpace=wrap;html=1;align=center;" parent="1" vertex="1">
          <mxGeometry x="2131.7200000000003" y="130" width="420" height="70" as="geometry"/>
        </mxCell>
        <mxCell id="2lPFWVvwFSRNDAgXZyUQ-10" value="&lt;font style=&quot;font-size: 18px&quot; color=&quot;#ffffff&quot;&gt;Python Scripting Module&lt;br&gt;&lt;/font&gt;" style="rounded=0;whiteSpace=wrap;html=1;gradientColor=none;fontSize=11;align=center;fillColor=#808080;" parent="1" vertex="1">
          <mxGeometry x="2641.7200000000003" y="80" width="440" height="40" as="geometry"/>
        </mxCell>
        <mxCell id="2lPFWVvwFSRNDAgXZyUQ-11" value="" style="rounded=0;whiteSpace=wrap;html=1;strokeColor=#666666;fillColor=#DEDEDE;fontSize=11;align=center;fontColor=#333333;" parent="1" vertex="1">
          <mxGeometry x="2641.7200000000003" y="120" width="440" height="520" as="geometry"/>
        </mxCell>
        <mxCell id="2lPFWVvwFSRNDAgXZyUQ-12" value="Module API" style="shape=umlFrame;whiteSpace=wrap;html=1;align=center;width=60;height=30;swimlaneFillColor=#F2F2F2;gradientColor=#ffffff;" parent="1" vertex="1">
          <mxGeometry x="2661.7200000000003" y="200" width="400" height="280" as="geometry"/>
        </mxCell>
        <mxCell id="cRoPIz6aXzqG4CNdJphQ-23" value="Python Scripting Module" style="rounded=1;arcSize=10;whiteSpace=wrap;html=1;align=center;" parent="1" vertex="1">
          <mxGeometry x="2651.7200000000003" y="130" width="420" height="70" as="geometry"/>
        </mxCell>
        <mxCell id="XQapYI1cBoCai9JiNM8M-2" value="" style="endArrow=classic;html=1;entryX=0.75;entryY=0;entryDx=0;entryDy=0;exitX=0.75;exitY=1;exitDx=0;exitDy=0;" parent="1" source="cRoPIz6aXzqG4CNdJphQ-15" target="cRoPIz6aXzqG4CNdJphQ-16" edge="1">
          <mxGeometry width="50" height="50" relative="1" as="geometry">
            <mxPoint x="1430" y="10" as="sourcePoint"/>
            <mxPoint x="1430" y="90" as="targetPoint"/>
            <Array as="points">
              <mxPoint x="1035" y="210"/>
              <mxPoint x="1500" y="210"/>
              <mxPoint x="1500" y="70"/>
              <mxPoint x="1645" y="70"/>
            </Array>
          </mxGeometry>
        </mxCell>
        <mxCell id="G1HnMXzEjRpA4rqBbhug-1" value="Core" style="text;html=1;align=center;verticalAlign=middle;resizable=0;points=[];labelBackgroundColor=#ffffff;" parent="XQapYI1cBoCai9JiNM8M-2" vertex="1" connectable="0">
          <mxGeometry x="0.205" y="2" relative="1" as="geometry">
            <mxPoint x="-26.67" as="offset"/>
          </mxGeometry>
        </mxCell>
        <mxCell id="XQapYI1cBoCai9JiNM8M-3" value="" style="endArrow=classic;html=1;entryX=0.25;entryY=0;entryDx=0;entryDy=0;" parent="1" target="cRoPIz6aXzqG4CNdJphQ-16" edge="1">
          <mxGeometry width="50" height="50" relative="1" as="geometry">
            <mxPoint x="490" y="10" as="sourcePoint"/>
            <mxPoint x="1250" y="90" as="targetPoint"/>
            <Array as="points">
              <mxPoint x="1435" y="10"/>
            </Array>
          </mxGeometry>
        </mxCell>
        <mxCell id="o8xXfL0Xr0lC2fOytx4v-1" value="Dispatcher" style="ellipse;whiteSpace=wrap;html=1;strokeColor=#000000;align=center;" vertex="1" parent="1">
          <mxGeometry x="460" y="852" width="70" height="56" as="geometry"/>
        </mxCell>
        <mxCell id="o8xXfL0Xr0lC2fOytx4v-3" value="Event" style="rhombus;whiteSpace=wrap;html=1;strokeColor=#000000;align=center;" vertex="1" parent="1">
          <mxGeometry x="355" y="848" width="80" height="64" as="geometry"/>
        </mxCell>
        <mxCell id="o8xXfL0Xr0lC2fOytx4v-4" value="Window&lt;br&gt;Resize" style="ellipse;whiteSpace=wrap;html=1;strokeColor=#000000;align=center;" vertex="1" parent="1">
          <mxGeometry x="1190" y="974" width="70" height="56" as="geometry"/>
        </mxCell>
        <mxCell id="o8xXfL0Xr0lC2fOytx4v-6" value="Mouse&lt;br&gt;Button&lt;br&gt;Pressed" style="ellipse;whiteSpace=wrap;html=1;strokeColor=#000000;align=center;" vertex="1" parent="1">
          <mxGeometry x="1025" y="974" width="70" height="56" as="geometry"/>
        </mxCell>
        <mxCell id="o8xXfL0Xr0lC2fOytx4v-7" value="Application&lt;br&gt;Event" style="ellipse;whiteSpace=wrap;html=1;strokeColor=#000000;align=center;" vertex="1" parent="1">
          <mxGeometry x="925" y="974" width="70" height="56" as="geometry"/>
        </mxCell>
        <mxCell id="It2hc3GTezuDzyHGdNuf-2" value="Key&lt;br&gt;Event" style="rhombus;whiteSpace=wrap;html=1;strokeColor=#000000;align=center;" vertex="1" parent="1">
          <mxGeometry x="420" y="966" width="80" height="64" as="geometry"/>
        </mxCell>
        <mxCell id="It2hc3GTezuDzyHGdNuf-5" value="Key&lt;br&gt;Pressed" style="ellipse;whiteSpace=wrap;html=1;strokeColor=#000000;align=center;" vertex="1" parent="1">
          <mxGeometry x="372.5" y="1090" width="70" height="56" as="geometry"/>
        </mxCell>
        <mxCell id="It2hc3GTezuDzyHGdNuf-6" value="Key&lt;br&gt;Released" style="ellipse;whiteSpace=wrap;html=1;strokeColor=#000000;align=center;" vertex="1" parent="1">
          <mxGeometry x="477.5" y="1090" width="70" height="56" as="geometry"/>
        </mxCell>
        <mxCell id="It2hc3GTezuDzyHGdNuf-9" value="" style="endArrow=classic;html=1;fillColor=#fff2cc;strokeColor=#d6b656;comic=0;rounded=0;strokeWidth=3;exitX=0.5;exitY=1;exitDx=0;exitDy=0;entryX=0.5;entryY=0;entryDx=0;entryDy=0;" edge="1" parent="1" source="o8xXfL0Xr0lC2fOytx4v-3" target="It2hc3GTezuDzyHGdNuf-2">
          <mxGeometry width="50" height="50" relative="1" as="geometry">
            <mxPoint x="405" y="922" as="sourcePoint"/>
            <mxPoint x="590" y="940" as="targetPoint"/>
            <Array as="points">
              <mxPoint x="395" y="940"/>
              <mxPoint x="460" y="940"/>
            </Array>
          </mxGeometry>
        </mxCell>
        <mxCell id="It2hc3GTezuDzyHGdNuf-10" value="" style="endArrow=classic;html=1;fillColor=#fff2cc;strokeColor=#d6b656;comic=0;rounded=0;strokeWidth=3;exitX=0.5;exitY=1;exitDx=0;exitDy=0;entryX=0.5;entryY=0;entryDx=0;entryDy=0;" edge="1" parent="1" source="It2hc3GTezuDzyHGdNuf-2" target="It2hc3GTezuDzyHGdNuf-6">
          <mxGeometry width="50" height="50" relative="1" as="geometry">
            <mxPoint x="395" y="1030.0000000000002" as="sourcePoint"/>
            <mxPoint x="500" y="1084" as="targetPoint"/>
            <Array as="points">
              <mxPoint x="460" y="1070"/>
              <mxPoint x="513" y="1070"/>
            </Array>
          </mxGeometry>
        </mxCell>
        <mxCell id="It2hc3GTezuDzyHGdNuf-11" value="" style="endArrow=classic;html=1;fillColor=#fff2cc;strokeColor=#d6b656;comic=0;rounded=0;strokeWidth=3;entryX=0.5;entryY=0;entryDx=0;entryDy=0;" edge="1" parent="1" target="It2hc3GTezuDzyHGdNuf-5">
          <mxGeometry width="50" height="50" relative="1" as="geometry">
            <mxPoint x="460" y="1070" as="sourcePoint"/>
            <mxPoint x="460" y="1100" as="targetPoint"/>
            <Array as="points">
              <mxPoint x="408" y="1070"/>
            </Array>
          </mxGeometry>
        </mxCell>
        <mxCell id="It2hc3GTezuDzyHGdNuf-12" value="Mouse&lt;br&gt;Button&lt;br&gt;Released" style="ellipse;whiteSpace=wrap;html=1;strokeColor=#000000;align=center;" vertex="1" parent="1">
          <mxGeometry x="725" y="974" width="70" height="56" as="geometry"/>
        </mxCell>
        <mxCell id="It2hc3GTezuDzyHGdNuf-13" value="Mouse&lt;br&gt;Moved" style="ellipse;whiteSpace=wrap;html=1;strokeColor=#000000;align=center;" vertex="1" parent="1">
          <mxGeometry x="630" y="974" width="70" height="56" as="geometry"/>
        </mxCell>
        <mxCell id="It2hc3GTezuDzyHGdNuf-14" value="Mouse&lt;br&gt;Scrolled" style="ellipse;whiteSpace=wrap;html=1;strokeColor=#000000;align=center;" vertex="1" parent="1">
          <mxGeometry x="825" y="974" width="70" height="56" as="geometry"/>
        </mxCell>
        <mxCell id="It2hc3GTezuDzyHGdNuf-16" value="" style="endArrow=classic;html=1;fillColor=#fff2cc;strokeColor=#d6b656;comic=0;rounded=0;strokeWidth=3;entryX=0.5;entryY=0;entryDx=0;entryDy=0;exitX=0.5;exitY=1;exitDx=0;exitDy=0;" edge="1" parent="1" source="o8xXfL0Xr0lC2fOytx4v-3" target="It2hc3GTezuDzyHGdNuf-13">
          <mxGeometry width="50" height="50" relative="1" as="geometry">
            <mxPoint x="400" y="940" as="sourcePoint"/>
            <mxPoint x="675" y="934" as="targetPoint"/>
            <Array as="points">
              <mxPoint x="395" y="940"/>
              <mxPoint x="665" y="940"/>
            </Array>
          </mxGeometry>
        </mxCell>
        <mxCell id="It2hc3GTezuDzyHGdNuf-17" value="" style="endArrow=classic;html=1;fillColor=#fff2cc;strokeColor=#d6b656;comic=0;rounded=0;strokeWidth=3;entryX=0.5;entryY=0;entryDx=0;entryDy=0;" edge="1" parent="1" target="It2hc3GTezuDzyHGdNuf-12">
          <mxGeometry width="50" height="50" relative="1" as="geometry">
            <mxPoint x="665" y="940" as="sourcePoint"/>
            <mxPoint x="835" y="924" as="targetPoint"/>
            <Array as="points">
              <mxPoint x="760" y="940"/>
            </Array>
          </mxGeometry>
        </mxCell>
        <mxCell id="It2hc3GTezuDzyHGdNuf-18" value="" style="endArrow=classic;html=1;fillColor=#fff2cc;strokeColor=#d6b656;comic=0;rounded=0;strokeWidth=3;entryX=0.5;entryY=0;entryDx=0;entryDy=0;" edge="1" parent="1">
          <mxGeometry width="50" height="50" relative="1" as="geometry">
            <mxPoint x="755" y="940" as="sourcePoint"/>
            <mxPoint x="860" y="974" as="targetPoint"/>
            <Array as="points">
              <mxPoint x="860" y="940"/>
            </Array>
          </mxGeometry>
        </mxCell>
        <mxCell id="It2hc3GTezuDzyHGdNuf-22" value="Window&lt;br&gt;Resize" style="ellipse;whiteSpace=wrap;html=1;strokeColor=#000000;align=center;" vertex="1" parent="1">
          <mxGeometry x="1285" y="974" width="70" height="56" as="geometry"/>
        </mxCell>
        <mxCell id="It2hc3GTezuDzyHGdNuf-24" value="" style="endArrow=classic;html=1;fillColor=#fff2cc;strokeColor=#d6b656;comic=0;rounded=0;strokeWidth=3;entryX=0.5;entryY=0;entryDx=0;entryDy=0;" edge="1" parent="1">
          <mxGeometry width="50" height="50" relative="1" as="geometry">
            <mxPoint x="855" y="940" as="sourcePoint"/>
            <mxPoint x="960" y="974" as="targetPoint"/>
            <Array as="points">
              <mxPoint x="960" y="940"/>
            </Array>
          </mxGeometry>
        </mxCell>
        <mxCell id="It2hc3GTezuDzyHGdNuf-25" value="" style="endArrow=classic;html=1;fillColor=#fff2cc;strokeColor=#d6b656;comic=0;rounded=0;strokeWidth=3;entryX=0.5;entryY=0;entryDx=0;entryDy=0;" edge="1" parent="1">
          <mxGeometry width="50" height="50" relative="1" as="geometry">
            <mxPoint x="955" y="940" as="sourcePoint"/>
            <mxPoint x="1060" y="974" as="targetPoint"/>
            <Array as="points">
              <mxPoint x="1060" y="940"/>
            </Array>
          </mxGeometry>
        </mxCell>
        <mxCell id="It2hc3GTezuDzyHGdNuf-26" value="" style="endArrow=classic;html=1;fillColor=#fff2cc;strokeColor=#d6b656;comic=0;rounded=0;strokeWidth=3;entryX=0.5;entryY=0;entryDx=0;entryDy=0;" edge="1" parent="1" target="o8xXfL0Xr0lC2fOytx4v-4">
          <mxGeometry width="50" height="50" relative="1" as="geometry">
            <mxPoint x="1055" y="940" as="sourcePoint"/>
            <mxPoint x="1180" y="974" as="targetPoint"/>
            <Array as="points">
              <mxPoint x="1225" y="940"/>
            </Array>
          </mxGeometry>
        </mxCell>
        <mxCell id="It2hc3GTezuDzyHGdNuf-27" value="" style="endArrow=classic;html=1;fillColor=#fff2cc;strokeColor=#d6b656;comic=0;rounded=0;strokeWidth=3;entryX=0.5;entryY=0;entryDx=0;entryDy=0;" edge="1" parent="1" target="It2hc3GTezuDzyHGdNuf-22">
          <mxGeometry width="50" height="50" relative="1" as="geometry">
            <mxPoint x="1190" y="940" as="sourcePoint"/>
            <mxPoint x="1315" y="974" as="targetPoint"/>
            <Array as="points">
              <mxPoint x="1320" y="940"/>
            </Array>
          </mxGeometry>
        </mxCell>
        <mxCell id="It2hc3GTezuDzyHGdNuf-32" value="Keyborad" style="shape=umlFrame;whiteSpace=wrap;html=1;" vertex="1" parent="1">
          <mxGeometry x="360" y="946" width="200" height="214" as="geometry"/>
        </mxCell>
        <mxCell id="It2hc3GTezuDzyHGdNuf-33" value="Mouse" style="shape=umlFrame;whiteSpace=wrap;html=1;" vertex="1" parent="1">
          <mxGeometry x="560" y="946" width="550" height="94" as="geometry"/>
        </mxCell>
        <mxCell id="It2hc3GTezuDzyHGdNuf-34" value="Window" style="shape=umlFrame;whiteSpace=wrap;html=1;" vertex="1" parent="1">
          <mxGeometry x="1110" y="946" width="260" height="94" as="geometry"/>
        </mxCell>
      </root>
    </mxGraphModel>
  </diagram>
</mxfile>
